<svg xmlns="http://www.w3.org/2000/svg" width="1200" height="760" viewBox="0 0 1200 760" role="img" aria-labelledby="title desc">
  <title id="title">Pomelo Context Workbook experiment results</title>
  <desc id="desc">Bilingual chart comparing token cost, fact accuracy, structure score, and accuracy per 1K tokens across Markdown, HTML source, and Pomelo CWB small-read.</desc>
  <style>
    .bg { fill: #fbfaf6; }
    .panel { fill: #ffffff; stroke: #d9d4c7; stroke-width: 1.5; }
    text { font-family: -apple-system, BlinkMacSystemFont, "Segoe UI", "PingFang SC", "Hiragino Sans GB", sans-serif; }
    .title { font-size: 44px; font-weight: 800; fill: #172a2a; }
    .subtitle { font-size: 21px; font-weight: 600; fill: #4f5b55; }
    .small { font-size: 16px; font-weight: 500; fill: #59645f; }
    .metric { font-size: 36px; font-weight: 800; fill: #172a2a; }
    .metricLabel { font-size: 15px; font-weight: 600; fill: #59645f; }
    .method { font-size: 18px; font-weight: 800; fill: #172a2a; }
    .methodZh { font-size: 15px; font-weight: 500; fill: #65706a; }
    .value { font-size: 15px; font-weight: 700; fill: #172a2a; }
    .axis { stroke: #ddd7ca; stroke-width: 1; }
    .caption { font-size: 14px; font-weight: 500; fill: #6d766f; }
  </style>
  <rect class="bg" width="1200" height="760"/>
  <rect class="panel" x="34" y="34" width="1132" height="692" rx="26"/>

  <text x="70" y="105" class="title">Pomelo Context Workbook</text>
  <text x="70" y="140" class="subtitle">低 Token、可达意、可视化归档的 AI 上下文工作簿</text>
  <text x="70" y="172" class="small">Markdown vs raw HTML source vs manifest + selected CSV ranges</text>

  <rect x="70" y="210" width="240" height="74" rx="16" fill="#edf6f2" stroke="#b9d7cd"/>
  <text x="92" y="253" class="metric">988</text>
  <text x="188" y="253" class="metricLabel">avg tokens</text>
  <text x="92" y="272" class="metricLabel">Pomelo small-read / 按需读取</text>

  <rect x="334" y="210" width="240" height="74" rx="16" fill="#fff4ec" stroke="#e1c2ae"/>
  <text x="356" y="253" class="metric">44.5%</text>
  <text x="492" y="253" class="metricLabel">less than MD</text>
  <text x="356" y="272" class="metricLabel">相比 Markdown 更省 token</text>

  <rect x="598" y="210" width="240" height="74" rx="16" fill="#f1f2df" stroke="#cfd2a4"/>
  <text x="620" y="253" class="metric">57.5%</text>
  <text x="756" y="253" class="metricLabel">less than HTML</text>
  <text x="620" y="272" class="metricLabel">相比 HTML source 更省 token</text>

  <rect x="862" y="210" width="240" height="74" rx="16" fill="#eff3fb" stroke="#c5d1e7"/>
  <text x="884" y="253" class="metric">100%</text>
  <text x="984" y="253" class="metricLabel">fact accuracy</text>
  <text x="884" y="272" class="metricLabel">确定性事实覆盖准确率</text>

  <text x="300" y="326" class="caption">Token cost</text>
  <line x1="300" y1="336" x2="720" y2="336" class="axis"/>
  <text x="300" y="636" class="caption">Accuracy per 1K tokens</text>
  <line x1="300" y1="646" x2="550" y2="646" class="axis"/>

  <text x="70" y="360" class="method">Markdown full read</text>
    <text x="70" y="384" class="methodZh">完整 Markdown</text>
    <rect x="300" y="336" width="321.6" height="26" rx="8" fill="#7c8a3a"/>
    <text x="636.6444253120965" y="355" class="value">1779 tokens</text>
    <rect x="300" y="378" width="138.7" height="18" rx="8" fill="#172a2a"/>
    <text x="453.7378512541045" y="393" class="value">0.562 / 1K tokens</text>
    <text x="955" y="355" class="value">100% accuracy</text>
    <text x="955" y="389" class="value">50 structure</text>
<text x="70" y="448" class="method">Raw HTML source</text>
    <text x="70" y="472" class="methodZh">原始 HTML</text>
    <rect x="300" y="424" width="420.0" height="26" rx="8" fill="#c15f3f"/>
    <text x="735" y="443" class="value">2323 tokens</text>
    <rect x="300" y="466" width="106.2" height="18" rx="8" fill="#172a2a"/>
    <text x="421.24505036898455" y="481" class="value">0.430 / 1K tokens</text>
    <text x="955" y="443" class="value">100% accuracy</text>
    <text x="955" y="477" class="value">90 structure</text>
<text x="70" y="536" class="method">Pomelo CWB small-read</text>
    <text x="70" y="560" class="methodZh">Pomelo 按需读取</text>
    <rect x="300" y="512" width="178.6" height="26" rx="8" fill="#2f8f83"/>
    <text x="493.6310804993543" y="531" class="value">988 tokens</text>
    <rect x="300" y="554" width="250.0" height="18" rx="8" fill="#172a2a"/>
    <text x="565" y="569" class="value">1.013 / 1K tokens</text>
    <text x="955" y="531" class="value">100% accuracy</text>
    <text x="955" y="565" class="value">100 structure</text>

  <text x="70" y="690" class="caption">Deterministic fixture benchmark, 4 scenarios, 5 required facts each. Results are directional, reproducible, and not a universal claim.</text>
  <text x="70" y="712" class="caption">确定性样例实验：4 个场景，每个 5 个必要事实。结果用于验证方向，可复现，但不代表所有材料的绝对结论。</text>
</svg>
